<svg aria-hidden="true" style="position: absolute; width: 0; height: 0; overflow: hidden;" version="1.1" xmlns="http://www.w3.org/2000/svg" xmlns:xlink="http://www.w3.org/1999/xlink">
<defs>
<symbol id="icon-cart" viewBox="0 0 32 32">
<path fill="#fff" style="fill: var(--color1, #fff)" d="M11.212 21.647l-0.925 2.566h16.41c0.473 0 0.856 0.383 0.856 0.856s-0.383 0.856-0.856 0.856h-0.963l-0.002-0.003c0.493 0.543 0.793 1.264 0.793 2.055 0 0 0 0 0 0v0c-0.002 1.7-1.38 3.078-3.081 3.079h-0c-1.7-0.002-3.077-1.38-3.079-3.080v-0c0-0.791 0.301-1.512 0.791-2.053l-6.717-0.003c0.492 0.543 0.792 1.263 0.792 2.054 0 0.001 0 0.001 0 0.002v0c-0.003 1.699-1.38 3.076-3.080 3.079h-0c-1.699-0.003-3.076-1.38-3.079-3.080v-0c0-0.791 0.301-1.512 0.791-2.053h-0.791c-0.001 0-0.002 0-0.003 0-0.472 0-0.854-0.382-0.854-0.854 0-0.105 0.019-0.205 0.051-0.292l1.128-3.132h-0.493c-0.497 0-0.922-0.355-1.011-0.841l-2.977-16.209-4.266-1.677c-0.349-0.164-0.591-0.519-0.591-0.93 0-0.568 0.46-1.028 1.028-1.028 0.115 0 0.225 0.019 0.32 0.051l4.798 1.884c0.32 0.128 0.561 0.413 0.628 0.767l2.925 15.93 0.646 1.206 0.812 0.847zM10.781 27.978c0.023 0.738 0.627 1.328 1.369 1.328s1.346-0.59 1.369-1.326l0-0.002c0-0.756-0.613-1.37-1.37-1.37s-1.37 0.613-1.37 1.37v0zM22.075 27.978c0.023 0.738 0.627 1.328 1.369 1.328s1.346-0.59 1.369-1.326l0-0.002c-0.023-0.738-0.627-1.328-1.369-1.328s-1.346 0.59-1.369 1.326l-0 0.002z"></path>
<path fill="#ffc700" style="fill: var(--color2, #ffc700)" d="M31.816 6.685c-0.18-0.255-0.468-0.424-0.797-0.438l-0.002-0-19.85-0.856c-0.013-0.001-0.029-0.001-0.044-0.001-0.567 0-1.027 0.46-1.027 1.027 0 0.552 0.435 1.002 0.981 1.026l0.002 0 18.506 0.797-3.638 11.354h-16.193l0.645 1.206 0.812 0.847h15.483c0 0 0 0 0 0 0.455 0 0.841-0.297 0.976-0.707l0.002-0.007 4.279-13.347c0.031-0.094 0.049-0.202 0.049-0.314 0-0.22-0.069-0.423-0.187-0.59l0.002 0.003z"></path>
</symbol>
<symbol id="icon-like" viewBox="0 0 32 32">
<path fill="#fff" style="fill: var(--color1, #fff)" d="M19.072 2.766c1.083-0.483 2.347-0.765 3.677-0.767h0.001c5.107 0.005 9.246 4.144 9.251 9.251v0c0 9.21-14.854 18.25-15.47 18.605-0.147 0.090-0.324 0.143-0.515 0.143h-0l-0.015-2.179c2.586-1.655 14.001-9.364 14.001-16.57 0-0.002 0-0.004 0-0.006 0-4.003-3.245-7.249-7.249-7.249-2.446 0-4.609 1.211-5.921 3.067l-0.015 0.023c-0.184 0.258-0.481 0.424-0.818 0.424-0 0-0 0-0 0v0l0.003-2.578c0.849-0.904 1.87-1.635 3.013-2.141l0.059-0.023z"></path>
<path fill="#ffc700" style="fill: var(--color2, #ffc700)" d="M16 4.931c-1.692-1.802-4.090-2.925-6.749-2.925-5.107 0-9.247 4.138-9.251 9.244v0c0 9.21 14.854 18.25 15.501 18.605 0.154 0.093 0.333 0.143 0.515 0.143l-0.015-2.179c-2.586-1.65-14.001-9.359-14.001-16.568 0.001-4.003 3.247-7.248 7.25-7.248 2.442 0 4.603 1.208 5.916 3.059l0.015 0.022c0.184 0.258 0.481 0.424 0.818 0.424 0 0 0 0 0 0v0l0.003-2.578z"></path>
</symbol>
<symbol id="icon-search" viewBox="0 0 32 32">
<path fill="#ffc700" style="fill: var(--color2, #ffc700)" d="M27.708 26.293l-5.969-5.969c1.408-1.704 2.261-3.91 2.261-6.316 0-0.003 0-0.005 0-0.008v0c-0.006-5.521-4.48-9.995-10.001-10.001h-0.001c-5.52 0.007-9.993 4.481-9.999 10v0.001c0.007 5.52 4.481 9.993 10 9.999h0.001c0.002 0 0.005 0 0.008 0 2.406 0 4.612-0.854 6.332-2.275l-0.017 0.014 5.969 5.969c0.181 0.181 0.431 0.293 0.707 0.293 0.552 0 1-0.448 1-1 0-0.276-0.112-0.526-0.293-0.707v0zM6.001 14.001c0.005-4.416 3.584-7.995 8-8h0c4.416 0.005 7.995 3.584 8 8v0c-0.005 4.416-3.584 7.995-8 8h-0c-4.416-0.005-7.995-3.584-8-8v-0z"></path>
</symbol>
<symbol id="icon-arrow" viewBox="0 0 20 32">
<path fill="none" stroke="#fff" style="stroke: var(--color1, #fff)" stroke-linejoin="miter" stroke-linecap="butt" stroke-miterlimit="4" stroke-width="1.4545" d="M18.909 31.273l-17.455-15.273 17.455-15.273"></path>
</symbol>
<symbol id="icon-map" viewBox="0 0 28 32">
<path fill="#fff" style="fill: var(--color1, #fff)" d="M19.405 21.143l-1.108 1.739c5.481 0.681 7.954 2.43 7.954 3.493 0 1.569-4.77 3.75-12.188 3.75-7.374 0-12.187-2.167-12.187-3.749 0-1.064 2.473-2.813 7.953-3.494l-1.108-1.739c-3.229 0.497-8.72 1.977-8.72 5.233 0 1.187 0.775 2.879 4.466 4.197 2.578 0.921 5.986 1.427 9.596 1.427 6.752 0 14.062-1.904 14.062-5.625 0-3.257-5.484-4.735-8.72-5.232z"></path>
<path fill="#fff" style="fill: var(--color1, #fff)" d="M19.405 21.142l-4.554 7.147c-0.167 0.258-0.458 0.43-0.788 0.43s-0.621-0.171-0.79-0.433l-7.573-11.883c-1.28-1.772-1.949-3.884-1.949-6.028 0-5.698 4.635-10.375 10.313-10.375 5.696 0 10.313 4.686 10.313 10.375v-0.001c0 0.007 0 0.013 0 0.020 0 2.225-0.71 4.284-1.895 5.933-0.098 0.139 0.33-0.527-3.075 4.816zM7.233 15.324c0.011 0.015 0.022 0.031 0.032 0.047l6.797 10.665c7.278-11.42 6.807-10.688 6.898-10.807 0.964-1.346 1.541-3.025 1.541-4.84 0-0.005 0-0.010 0-0.016v0.001c0-4.687-3.786-8.5-8.437-8.5-4.662 0-8.438 3.811-8.438 8.5 0 1.746 0.543 3.484 1.608 4.949z"></path>
<path fill="#ffc700" style="fill: var(--color2, #ffc700)" d="M19.405 21.142l-4.554 7.147c-0.167 0.258-0.458 0.43-0.788 0.43s-0.621-0.171-0.79-0.433l-7.573-11.883c-1.28-1.772-1.949-3.884-1.949-6.028 0-5.698 4.635-10.375 10.313-10.375 5.696 0 10.313 4.686 10.313 10.375v-0.001c0 0.007 0 0.013 0 0.020 0 2.225-0.71 4.284-1.895 5.933-0.098 0.139 0.33-0.527-3.075 4.816zM7.233 15.324c0.011 0.015 0.022 0.031 0.032 0.047l6.797 10.665c7.278-11.42 6.807-10.688 6.898-10.807 0.964-1.346 1.541-3.025 1.541-4.84 0-0.005 0-0.010 0-0.016v0.001c0-4.687-3.786-8.5-8.437-8.5-4.662 0-8.438 3.811-8.438 8.5 0 1.746 0.543 3.484 1.608 4.949z"></path>
<path fill="#fff" style="fill: var(--color1, #fff)" d="M14.062 5.687c-2.585 0-4.687 2.103-4.687 4.688 0 2.584 2.103 4.687 4.688 4.687s4.687-2.103 4.687-4.687-2.102-4.687-4.687-4.687zM14.062 13.188c-1.553-0.002-2.81-1.26-2.812-2.813v-0c0.002-1.552 1.26-2.81 2.812-2.812h0c1.553 0.002 2.811 1.26 2.813 2.812v0c-0.002 1.553-1.26 2.811-2.813 2.813h-0z"></path>
</symbol>
<symbol id="icon-schedule" viewBox="0 0 37 32">
<path fill="#fff" style="fill: var(--color1, #fff)" d="M6.4 30.933v-3.2h2.133v2.133h25.742v-9.248c0.581-1.095 1.82-3.765 2.133-5.685v16c0 0.589-0.478 1.067-1.067 1.067v0h-27.876c-0.589 0-1.067-0.478-1.067-1.067v0z"></path>
<path fill="#fff" style="fill: var(--color1, #fff)" d="M1.067 27.733h-0c-0.589-0-1.066-0.478-1.066-1.067 0-0.328 0.148-0.622 0.384-0.819 2.749-2.338 6.016-8.386 6.016-16.247v-1.067h30.009v6.4c-0.313 1.92-1.553 4.59-2.133 5.685-1.382 3.257-3.368 5.799-4.651 6.867l0.002-0.001c-0.185 0.155-0.424 0.249-0.684 0.249h-27.876zM34.257 10.666h-25.741c-0.176 5.311-1.742 10.754-5.022 14.934h25.031c2.894-2.844 5.492-8.167 5.732-14.934z"></path>
<path fill="#ffc700" style="fill: var(--color2, #ffc700)" d="M1.067 27.733h-0c-0.589-0-1.066-0.478-1.066-1.067 0-0.328 0.148-0.622 0.384-0.819 2.749-2.338 6.016-8.386 6.016-16.247v-1.067h30.009v6.4c-0.313 1.92-1.553 4.59-2.133 5.685-1.382 3.257-3.368 5.799-4.651 6.867l0.002-0.001c-0.185 0.155-0.424 0.249-0.684 0.249h-27.876zM34.257 10.666h-25.741c-0.176 5.311-1.742 10.754-5.022 14.934h25.031c2.894-2.844 5.492-8.167 5.732-14.934z"></path>
<path fill="#fff" style="fill: var(--color1, #fff)" d="M22.471 2.133v-1.067c0-0.589-0.478-1.067-1.067-1.067s-1.067 0.478-1.067 1.067v0 4.267c0 0.589 0.478 1.067 1.067 1.067s1.067-0.478 1.067-1.067v0-3.2z"></path>
<path fill="#ffc700" style="fill: var(--color2, #ffc700)" d="M22.471 2.133v-1.067c0-0.589-0.478-1.067-1.067-1.067s-1.067 0.478-1.067 1.067v0 4.267c0 0.589 0.478 1.067 1.067 1.067s1.067-0.478 1.067-1.067v0-3.2z"></path>
<path fill="#fff" style="fill: var(--color1, #fff)" d="M6.4 3.2v5.333h2.133v-4.267h4.338v-2.133h-5.405c-0.589 0-1.067 0.478-1.067 1.067v0zM15.005 2.133v2.133h5.333v-2.133h-5.333zM27.876 4.267h-5.405v-2.133h5.405v2.133zM30.009 4.267h4.267v4.267h2.133v-5.333c0-0.589-0.478-1.067-1.067-1.067v0h-5.333v2.133z"></path>
<path fill="#fff" style="fill: var(--color1, #fff)" d="M30.009 2.133v-1.067c0-0.589-0.478-1.067-1.067-1.067s-1.067 0.478-1.067 1.067v0 4.267c0 0.589 0.478 1.067 1.067 1.067s1.067-0.478 1.067-1.067v0-3.2z"></path>
<path fill="#ffc700" style="fill: var(--color2, #ffc700)" d="M30.009 2.133v-1.067c0-0.589-0.478-1.067-1.067-1.067s-1.067 0.478-1.067 1.067v0 4.267c0 0.589 0.478 1.067 1.067 1.067s1.067-0.478 1.067-1.067v0-3.2z"></path>
<path fill="#fff" style="fill: var(--color1, #fff)" d="M15.005 2.133v-1.067c0-0.589-0.478-1.067-1.067-1.067s-1.067 0.478-1.067 1.067v0 4.267c0 0.589 0.478 1.067 1.067 1.067s1.067-0.478 1.067-1.067v0-3.2z"></path>
<path fill="#ffc700" style="fill: var(--color2, #ffc700)" d="M15.005 2.133v-1.067c0-0.589-0.478-1.067-1.067-1.067s-1.067 0.478-1.067 1.067v0 4.267c0 0.589 0.478 1.067 1.067 1.067s1.067-0.478 1.067-1.067v0-3.2z"></path>
</symbol>
<symbol id="icon-tel" viewBox="0 0 32 32">
<path fill="#fff" style="fill: var(--color1, #fff)" d="M25.267 19.823c-0.655-0.683-1.445-1.047-2.283-1.047-0.831 0-1.628 0.358-2.31 1.040l-2.134 2.127c-0.176-0.094-0.351-0.182-0.52-0.27-0.275-0.132-0.494-0.252-0.707-0.38l0.039 0.022c-1.999-1.269-3.815-2.924-5.558-5.065-0.844-1.067-1.412-1.965-1.824-2.877 0.554-0.507 1.067-1.033 1.567-1.54 0.189-0.189 0.379-0.385 0.567-0.574 1.419-1.419 1.419-3.255 0-4.674l-1.844-1.844c-0.21-0.208-0.415-0.417-0.617-0.629l-0.011-0.012c-0.414-0.433-0.827-0.842-1.252-1.24l-0.017-0.016c-0.655-0.648-1.439-0.993-2.263-0.993s-1.621 0.345-2.296 0.993l-0.013 0.014-2.297 2.316c-0.864 0.865-1.357 1.918-1.466 3.141-0.162 1.972 0.419 3.81 0.865 5.012 1.094 2.951 2.729 5.686 5.166 8.618 2.958 3.532 6.517 6.322 10.583 8.287 1.553 0.736 3.627 1.607 5.943 1.756 0.142 0.007 0.291 0.014 0.426 0.014 1.56 0 2.87-0.561 3.897-1.675 0.007-0.014 0.020-0.021 0.027-0.034 0.352-0.426 0.757-0.811 1.182-1.222 0.304-0.288 0.59-0.573 0.87-0.863l0.008-0.008c0.669-0.695 1.020-1.506 1.020-2.337 0-0.837-0.358-1.642-1.040-2.317l-3.708-3.721zM27.684 26.934c-0.006 0-0.006 0.007 0 0-0.263 0.284-0.533 0.54-0.824 0.824-0.439 0.419-0.884 0.858-1.303 1.351-0.682 0.729-1.486 1.074-2.539 1.074-0.101 0-0.21 0-0.311-0.007-2.005-0.128-3.87-0.911-5.268-1.58-3.822-1.851-7.179-4.477-9.968-7.807-2.304-2.776-3.843-5.342-4.863-8.098-0.628-1.682-0.858-2.992-0.756-4.228 0.068-0.79 0.372-1.445 0.932-2.005l2.303-2.304c0.331-0.31 0.682-0.479 1.027-0.479 0.425 0 0.77 0.257 0.986 0.473l0.020 0.020c0.421 0.399 0.817 0.793 1.204 1.197l0.012 0.012c0.209 0.216 0.426 0.432 0.642 0.655l1.844 1.844c0.716 0.716 0.716 1.378 0 2.094-0.196 0.196-0.385 0.391-0.581 0.581-0.567 0.581-1.108 1.121-1.695 1.648-0.013 0.013-0.027 0.020-0.034 0.034-0.581 0.581-0.473 1.148-0.351 1.533l0.020 0.061c0.479 1.162 1.155 2.256 2.181 3.559l0.007 0.007c1.864 2.296 3.829 4.086 5.997 5.457 0.277 0.176 0.56 0.317 0.83 0.452 0.243 0.122 0.473 0.237 0.669 0.358 0.027 0.013 0.054 0.034 0.081 0.047 0.229 0.115 0.446 0.169 0.668 0.169 0.561 0 0.912-0.351 1.027-0.466l2.31-2.309c0.229-0.23 0.595-0.507 1.020-0.507 0.419 0 0.763 0.263 0.973 0.493l3.735 3.735c0.695 0.689 0.695 1.397 0.006 2.114zM17.27 7.612c1.77 0.297 3.377 1.135 4.66 2.418 1.233 1.226 2.097 2.822 2.41 4.608l0.008 0.052c0.074 0.432 0.446 0.757 0.894 0.757 0.002 0 0.003 0 0.005 0h-0c0.054 0 0.101-0.007 0.155-0.014 0.436-0.074 0.763-0.449 0.763-0.9 0-0.054-0.005-0.107-0.014-0.159l0.001 0.005c-0.388-2.224-1.432-4.156-2.924-5.639l-0-0c-1.547-1.547-3.499-2.56-5.639-2.924-0.046-0.008-0.098-0.013-0.152-0.013-0.449 0-0.823 0.323-0.902 0.75l-0.001 0.006c-0.088 0.493 0.236 0.972 0.736 1.053z"></path>
<path fill="#ffc700" style="fill: var(--color2, #ffc700)" d="M17.27 7.612c1.77 0.297 3.377 1.135 4.66 2.418 1.233 1.226 2.097 2.822 2.41 4.608l0.008 0.052c0.074 0.432 0.446 0.757 0.894 0.757 0.002 0 0.003 0 0.005 0h-0c0.054 0 0.101-0.007 0.155-0.014 0.436-0.074 0.763-0.449 0.763-0.9 0-0.054-0.005-0.107-0.014-0.159l0.001 0.005c-0.388-2.224-1.432-4.156-2.924-5.639l-0-0c-1.547-1.547-3.499-2.56-5.639-2.924-0.046-0.008-0.098-0.013-0.152-0.013-0.449 0-0.823 0.323-0.902 0.75l-0.001 0.006c-0.088 0.493 0.236 0.972 0.736 1.053z"></path>
<path fill="#fff" style="fill: var(--color1, #fff)" d="M31.939 14.116c-0.601-3.525-2.262-6.733-4.815-9.286s-5.761-4.214-9.286-4.815c-0.493-0.088-0.959 0.25-1.046 0.743-0.008 0.045-0.012 0.097-0.012 0.15 0 0.451 0.326 0.827 0.756 0.902l0.006 0.001c3.147 0.533 6.018 2.027 8.3 4.302 2.283 2.283 3.769 5.153 4.302 8.3 0.075 0.432 0.447 0.756 0.894 0.756 0.001 0 0.003 0 0.004 0h-0c0.054 0 0.101-0.006 0.155-0.013 0.431-0.069 0.757-0.439 0.757-0.884 0-0.055-0.005-0.109-0.015-0.161l0.001 0.005z"></path>
<path fill="#ffc700" style="fill: var(--color2, #ffc700)" d="M31.939 14.116c-0.601-3.525-2.262-6.733-4.815-9.286s-5.761-4.214-9.286-4.815c-0.493-0.088-0.959 0.25-1.046 0.743-0.008 0.045-0.012 0.097-0.012 0.15 0 0.451 0.326 0.827 0.756 0.902l0.006 0.001c3.147 0.533 6.018 2.027 8.3 4.302 2.283 2.283 3.769 5.153 4.302 8.3 0.075 0.432 0.447 0.756 0.894 0.756 0.001 0 0.003 0 0.004 0h-0c0.054 0 0.101-0.006 0.155-0.013 0.431-0.069 0.757-0.439 0.757-0.884 0-0.055-0.005-0.109-0.015-0.161l0.001 0.005z"></path>
</symbol>
<symbol id="icon-telegram" viewBox="0 0 39 32">
<path d="M37.239 0.876c-0.462-0.565-1.156-0.876-1.95-0.876-0.432 0-0.889 0.091-1.36 0.27l-32.016 12.222c-1.696 0.649-1.925 1.621-1.913 2.144 0.016 0.523 0.299 1.481 2.032 2.032l0.032 0.009 6.64 1.902 3.591 10.268c0.491 1.401 1.589 2.27 2.869 2.27 0.807 0 1.6-0.338 2.297-0.978l4.107-3.783 6.034 4.857c0.661 0.516 1.385 0.786 2.091 0.786 1.38 0 2.478-1.020 2.798-2.601l5.244-25.902c0.213-1.040 0.036-1.972-0.498-2.62zM10.926 18.217l12.812-6.546-7.979 8.478c-0.126 0.134-0.22 0.3-0.267 0.485l-0.002 0.008-1.538 6.231-3.028-8.656zM15.959 28.51c-0.053 0.048-0.107 0.092-0.16 0.132l1.428-5.78 2.596 2.091-3.863 3.556zM35.564 3.056l-5.246 25.902c-0.050 0.249-0.213 0.825-0.626 0.825-0.206 0-0.462-0.112-0.727-0.315l-10.772-8.674 11.538-12.258c0.187-0.198 0.302-0.465 0.302-0.76 0-0.612-0.496-1.108-1.108-1.108-0.184 0-0.358 0.045-0.51 0.124l0.006-0.003-18.976 9.694-6.731-1.927 32.005-12.217c0.167-0.072 0.362-0.117 0.566-0.124l0.003-0c0.069 0 0.19 0.007 0.235 0.062 0.059 0.071 0.133 0.316 0.041 0.777z"></path>
</symbol>
<symbol id="icon-viber" viewBox="0 0 31 32">
<path d="M18.68 13.102h-1.38c0-1.526-0.543-2.068-2.070-2.068v-1.38c2.286 0 3.45 1.165 3.45 3.448z"></path>
<path d="M21.439 13.101h-1.38c0-3.068-1.759-4.828-4.828-4.828v-1.379c3.828 0 6.208 2.38 6.208 6.208z"></path>
<path d="M24.197 13.102h-1.379c0-4.535-3.053-7.588-7.588-7.588v-1.38c5.363 0 8.966 3.604 8.966 8.966z"></path>
<path d="M8.334 32v-4.759l-1.475-0.173c-3.526-0.431-6.285-3.328-6.561-6.888-0.151-1.908-0.238-4.136-0.241-6.383v-0.005c0-2.13 0.086-4.276 0.241-6.388 0.278-3.561 3.087-6.467 6.682-6.907 2.475-0.317 5.338-0.497 8.243-0.497s5.768 0.181 8.578 0.531l-0.336-0.034c3.603 0.44 6.414 3.346 6.691 6.907 0.164 2.103 0.241 4.259 0.241 6.387 0 2.13-0.086 4.285-0.241 6.39-0.269 3.552-3.027 6.449-6.545 6.888-2.191 0.287-4.764 0.471-7.372 0.509l-0.050 0.001-7.854 4.422zM15.231 1.376c-2.701 0-5.398 0.166-8.077 0.492-2.949 0.362-5.252 2.734-5.476 5.647-0.153 1.854-0.241 4.014-0.241 6.194 0 0.029 0 0.058 0 0.088v-0.005c0 2.094 0.077 4.215 0.241 6.285 0.234 2.918 2.47 5.249 5.323 5.626l0.031 0.003c0.684 0.086 1.37 0.161 2.061 0.224l0.628 0.060v3.656l6.106-3.439h0.172c2.659-0.030 5.242-0.211 7.781-0.534l-0.331 0.034c2.87-0.355 5.111-2.726 5.336-5.623 0.164-2.068 0.241-4.189 0.241-6.285s-0.077-4.207-0.241-6.285c-0.225-2.913-2.527-5.285-5.484-5.647-2.422-0.311-5.224-0.49-8.068-0.492h-0.002z"></path>
<path d="M17.938 22.758h-0.637c-6.467 0-11.725-5.26-11.725-11.725v-0.64c-0-0.004-0-0.009-0-0.014 0-1.141 0.465-2.172 1.216-2.917l0.569-0.569c0.887-0.888 2.44-0.888 3.328 0l1.784 1.784c0.443 0.44 0.691 1.039 0.69 1.664-0.002 0.65-0.265 1.237-0.69 1.664l-0.164 0.164c-0.324 0.326-0.525 0.775-0.525 1.271 0 0.001 0 0.002 0 0.004v-0c0 0.479 0.189 0.937 0.525 1.276l1.293 1.293c0.673 0.673 1.888 0.673 2.56 0l0.165-0.163c0.887-0.888 2.44-0.888 3.328 0l1.784 1.792c0.426 0.426 0.689 1.014 0.689 1.664s-0.263 1.238-0.689 1.664l-0.57 0.57c-0.745 0.751-1.777 1.216-2.918 1.216-0.005 0-0.009 0-0.014-0h0.001zM9.024 7.584c-0.001 0-0.002 0-0.003 0-0.269 0-0.512 0.109-0.688 0.285v0l-0.568 0.568c-0.5 0.497-0.81 1.186-0.81 1.946 0 0.004 0 0.008 0 0.013v-0.001 0.637c0.006 5.711 4.635 10.34 10.346 10.345h0.638c0.001 0 0.002 0 0.003 0 0.76 0 1.448-0.31 1.945-0.81l0-0 0.57-0.568c0.177-0.176 0.286-0.42 0.286-0.69s-0.11-0.514-0.286-0.69l-0-0-1.775-1.784c-0.179-0.171-0.422-0.276-0.69-0.276s-0.511 0.105-0.69 0.277l-0.163 0.163c-0.577 0.577-1.374 0.933-2.255 0.933s-1.678-0.357-2.255-0.933l-1.293-1.293c-0.576-0.579-0.932-1.378-0.932-2.259 0-0 0-0.001 0-0.001v0c0-0.844 0.334-1.652 0.932-2.249l0.164-0.164c0.175-0.178 0.282-0.421 0.282-0.69s-0.108-0.512-0.282-0.69l-1.784-1.784c-0.176-0.176-0.419-0.285-0.688-0.285-0.001 0-0.002 0-0.003 0h0z"></path>
</symbol>
</defs>
</svg>
