<svg aria-hidden="true" style="position: absolute; width: 0; height: 0; overflow: hidden;" version="1.1" xmlns="http://www.w3.org/2000/svg" xmlns:xlink="http://www.w3.org/1999/xlink">
<defs>
<symbol id="icon-cart" viewBox="0 0 32 32">
<path fill="#fff" style="fill: var(--color1, #fff)" d="M11.212 21.647l-0.925 2.566h16.41c0.473 0 0.856 0.383 0.856 0.856s-0.383 0.856-0.856 0.856h-0.963l-0.002-0.003c0.493 0.543 0.793 1.264 0.793 2.055 0 0 0 0 0 0v0c-0.002 1.7-1.38 3.078-3.081 3.079h-0c-1.7-0.002-3.077-1.38-3.079-3.080v-0c0-0.791 0.301-1.512 0.791-2.053l-6.717-0.003c0.492 0.543 0.792 1.263 0.792 2.054 0 0.001 0 0.001 0 0.002v0c-0.003 1.699-1.38 3.076-3.080 3.079h-0c-1.699-0.003-3.076-1.38-3.079-3.080v-0c0-0.791 0.301-1.512 0.791-2.053h-0.791c-0.001 0-0.002 0-0.003 0-0.472 0-0.854-0.382-0.854-0.854 0-0.105 0.019-0.205 0.051-0.292l1.128-3.132h-0.493c-0.497 0-0.922-0.355-1.011-0.841l-2.977-16.209-4.266-1.677c-0.349-0.164-0.591-0.519-0.591-0.93 0-0.568 0.46-1.028 1.028-1.028 0.115 0 0.225 0.019 0.32 0.051l4.798 1.884c0.32 0.128 0.561 0.413 0.628 0.767l2.925 15.93 0.646 1.206 0.812 0.847zM10.781 27.978c0.023 0.738 0.627 1.328 1.369 1.328s1.346-0.59 1.369-1.326l0-0.002c0-0.756-0.613-1.37-1.37-1.37s-1.37 0.613-1.37 1.37v0zM22.075 27.978c0.023 0.738 0.627 1.328 1.369 1.328s1.346-0.59 1.369-1.326l0-0.002c-0.023-0.738-0.627-1.328-1.369-1.328s-1.346 0.59-1.369 1.326l-0 0.002z"></path>
<path fill="#ffc700" style="fill: var(--color2, #ffc700)" d="M31.816 6.685c-0.18-0.255-0.468-0.424-0.797-0.438l-0.002-0-19.85-0.856c-0.013-0.001-0.029-0.001-0.044-0.001-0.567 0-1.027 0.46-1.027 1.027 0 0.552 0.435 1.002 0.981 1.026l0.002 0 18.506 0.797-3.638 11.354h-16.193l0.645 1.206 0.812 0.847h15.483c0 0 0 0 0 0 0.455 0 0.841-0.297 0.976-0.707l0.002-0.007 4.279-13.347c0.031-0.094 0.049-0.202 0.049-0.314 0-0.22-0.069-0.423-0.187-0.59l0.002 0.003z"></path>
</symbol>
<symbol id="icon-like" viewBox="0 0 32 32">
<path fill="#fff" style="fill: var(--color1, #fff)" d="M19.072 2.766c1.083-0.483 2.347-0.765 3.677-0.767h0.001c5.107 0.005 9.246 4.144 9.251 9.251v0c0 9.21-14.854 18.25-15.47 18.605-0.147 0.090-0.324 0.143-0.515 0.143h-0l-0.015-2.179c2.586-1.655 14.001-9.364 14.001-16.57 0-0.002 0-0.004 0-0.006 0-4.003-3.245-7.249-7.249-7.249-2.446 0-4.609 1.211-5.921 3.067l-0.015 0.023c-0.184 0.258-0.481 0.424-0.818 0.424-0 0-0 0-0 0v0l0.003-2.578c0.849-0.904 1.87-1.635 3.013-2.141l0.059-0.023z"></path>
<path fill="#ffc700" style="fill: var(--color2, #ffc700)" d="M16 4.931c-1.692-1.802-4.090-2.925-6.749-2.925-5.107 0-9.247 4.138-9.251 9.244v0c0 9.21 14.854 18.25 15.501 18.605 0.154 0.093 0.333 0.143 0.515 0.143l-0.015-2.179c-2.586-1.65-14.001-9.359-14.001-16.568 0.001-4.003 3.247-7.248 7.25-7.248 2.442 0 4.603 1.208 5.916 3.059l0.015 0.022c0.184 0.258 0.481 0.424 0.818 0.424 0 0 0 0 0 0v0l0.003-2.578z"></path>
</symbol>
<symbol id="icon-search" viewBox="0 0 32 32">
<path fill="#ffc700" style="fill: var(--color2, #ffc700)" d="M27.708 26.293l-5.969-5.969c1.408-1.704 2.261-3.91 2.261-6.316 0-0.003 0-0.005 0-0.008v0c-0.006-5.521-4.48-9.995-10.001-10.001h-0.001c-5.52 0.007-9.993 4.481-9.999 10v0.001c0.007 5.52 4.481 9.993 10 9.999h0.001c0.002 0 0.005 0 0.008 0 2.406 0 4.612-0.854 6.332-2.275l-0.017 0.014 5.969 5.969c0.181 0.181 0.431 0.293 0.707 0.293 0.552 0 1-0.448 1-1 0-0.276-0.112-0.526-0.293-0.707v0zM6.001 14.001c0.005-4.416 3.584-7.995 8-8h0c4.416 0.005 7.995 3.584 8 8v0c-0.005 4.416-3.584 7.995-8 8h-0c-4.416-0.005-7.995-3.584-8-8v-0z"></path>
</symbol>
<symbol id="icon-arrow" viewBox="0 0 20 32">
<path fill="none" stroke="#fff" style="stroke: var(--color1, #fff)" stroke-linejoin="miter" stroke-linecap="butt" stroke-miterlimit="4" stroke-width="1.4545" d="M18.909 31.273l-17.455-15.273 17.455-15.273"></path>
</symbol>
</defs>
</svg>
